<svg xmlns="http://www.w3.org/2000/svg" viewBox="0 0 800 500">
  <defs>
    <linearGradient id="bg1" x1="0" y1="0" x2="1" y2="1">
      <stop offset="0%" stop-color="#00BCD4" stop-opacity="0.08"/>
      <stop offset="100%" stop-color="#6C63FF" stop-opacity="0.04"/>
    </linearGradient>
    <linearGradient id="cardGrad1" x1="0" y1="0" x2="1" y2="1">
      <stop offset="0%" stop-color="#00BCD4"/>
      <stop offset="100%" stop-color="#0097A7"/>
    </linearGradient>
  </defs>
  <rect width="800" height="500" fill="url(#bg1)" rx="16"/>
  <rect x="60" y="60" width="680" height="380" rx="24" fill="none" stroke="rgba(0,188,212,0.2)" stroke-width="2"/>
  <!-- Key icons grid -->
  <rect x="120" y="110" width="120" height="100" rx="16" fill="rgba(0,188,212,0.1)" stroke="rgba(0,188,212,0.3)" stroke-width="1.5"/>
  <circle cx="180" cy="140" r="16" fill="url(#cardGrad1)" opacity="0.8"/>
  <text x="180" y="146" text-anchor="middle" fill="white" font-size="16" font-weight="bold">1</text>
  <text x="180" y="180" text-anchor="middle" fill="#1A2332" font-size="12" font-weight="600">Retention</text>
  
  <rect x="260" y="110" width="120" height="100" rx="16" fill="rgba(108,99,255,0.1)" stroke="rgba(108,99,255,0.3)" stroke-width="1.5"/>
  <circle cx="320" cy="140" r="16" fill="#6C63FF" opacity="0.8"/>
  <text x="320" y="146" text-anchor="middle" fill="white" font-size="16" font-weight="bold">2</text>
  <text x="320" y="180" text-anchor="middle" fill="#1A2332" font-size="12" font-weight="600">Marketing</text>
  
  <rect x="400" y="110" width="120" height="100" rx="16" fill="rgba(0,188,212,0.1)" stroke="rgba(0,188,212,0.3)" stroke-width="1.5"/>
  <circle cx="460" cy="140" r="16" fill="url(#cardGrad1)" opacity="0.8"/>
  <text x="460" y="146" text-anchor="middle" fill="white" font-size="16" font-weight="bold">3</text>
  <text x="460" y="180" text-anchor="middle" fill="#1A2332" font-size="12" font-weight="600">Billing</text>
  
  <rect x="540" y="110" width="120" height="100" rx="16" fill="rgba(108,99,255,0.1)" stroke="rgba(108,99,255,0.3)" stroke-width="1.5"/>
  <circle cx="600" cy="140" r="16" fill="#6C63FF" opacity="0.8"/>
  <text x="600" y="146" text-anchor="middle" fill="white" font-size="16" font-weight="bold">4</text>
  <text x="600" y="180" text-anchor="middle" fill="#1A2332" font-size="12" font-weight="600">Analytics</text>
  
  <!-- Bottom row -->
  <rect x="170" y="240" width="120" height="70" rx="16" fill="rgba(0,188,212,0.08)" stroke="rgba(0,188,212,0.25)" stroke-width="1.5"/>
  <text x="230" y="272" text-anchor="middle" fill="#1A2332" font-size="12" font-weight="600">Inventory</text>
  
  <rect x="320" y="240" width="120" height="70" rx="16" fill="rgba(108,99,255,0.08)" stroke="rgba(108,99,255,0.25)" stroke-width="1.5"/>
  <text x="380" y="272" text-anchor="middle" fill="#1A2332" font-size="12" font-weight="600">Scheduling</text>
  
  <rect x="470" y="240" width="120" height="70" rx="16" fill="rgba(0,188,212,0.08)" stroke="rgba(0,188,212,0.25)" stroke-width="1.5"/>
  <text x="530" y="272" text-anchor="middle" fill="#1A2332" font-size="12" font-weight="600">Scalability</text>
  
  <!-- Title overlay -->
  <rect x="100" y="340" width="600" height="60" rx="12" fill="rgba(0,188,212,0.12)"/>
  <text x="400" y="377" text-anchor="middle" fill="#0097A7" font-size="20" font-weight="800">7 Key Factors for Choosing Salon CRM Software</text>
</svg>